<?xml version="1.0" standalone="no"?>
<!DOCTYPE svg PUBLIC "-//W3C//DTD SVG 20010904//EN"
 "http://www.w3.org/TR/2001/REC-SVG-20010904/DTD/svg10.dtd">
<svg version="1.0" xmlns="http://www.w3.org/2000/svg"
 width="200.000000pt" height="200.000000pt" viewBox="0 0 200.000000 200.000000"
 preserveAspectRatio="xMidYMid meet">
<metadata>
Created by potrace 1.11, written by Peter Selinger 2001-2013
</metadata>
<g transform="translate(0.000000,200.000000) scale(0.100000,-0.100000)"
fill="#000000" stroke="none">
<path d="M874 1655 c-109 -49 -187 -218 -147 -317 l15 -39 -42 -50 c-50 -60
-140 -201 -177 -278 -62 -131 -71 -213 -34 -312 24 -63 50 -95 109 -134 41
-27 53 -44 32 -46 -5 -1 -14 -3 -20 -4 -5 -1 -17 -3 -25 -4 -9 0 -31 -17 -50
-36 -58 -60 -58 -153 -1 -203 21 -17 23 -27 21 -83 -2 -35 -10 -83 -18 -106
l-15 -43 439 0 440 0 -3 35 c-1 19 1 37 5 41 4 4 7 0 7 -10 0 -9 7 -28 16 -41
15 -23 23 -25 91 -25 41 0 73 3 71 8 -35 68 -70 150 -78 184 -8 37 -7 45 8 58
20 17 44 70 47 103 2 33 -26 99 -54 128 -29 28 -107 63 -122 54 -5 -4 -9 -2
-9 4 0 5 4 11 9 13 15 6 60 86 68 120 9 43 10 152 1 203 -30 167 -195 399
-345 487 -48 27 -52 32 -46 56 13 45 7 146 -11 180 -9 17 -28 39 -42 48 -33
22 -101 27 -140 9z"/>
</g>
</svg>
